<?xml version="1.0" encoding="UTF-8"?>
<svg id="_Слой_1" data-name="Слой 1" xmlns="http://www.w3.org/2000/svg" viewBox="0 0 1920 1080">
  <defs>
    <style>
      .cls-1 {
        fill: #fff;
        stroke-width: 0px;
      }
    </style>
  </defs>
  <path class="cls-1" d="M309.77,286.88c-31.04,4.84-65.69,12.04-102.87,22.8-46.64,13.5-87.17,29.68-121.16,45.61,10.64,29.28,21,65.32,27.43,107.18,9.47,61.63,7.2,115.04,2.29,155.06,12.06,24.8,31.9,58.27,64.01,91.21,47.9,49.14,99.6,73,130.3,84.37,30.7-11.37,82.4-35.24,130.3-84.37,32.11-32.94,51.95-66.41,64.01-91.21-4.91-40.02-7.18-93.44,2.29-155.06,6.43-41.86,16.8-77.89,27.43-107.18-33.99-15.93-74.52-32.11-121.16-45.61-37.18-10.76-71.83-17.97-102.87-22.8Z"/>
  <polygon class="cls-1" points="746.57 373.53 729.76 466.24 824.28 466.24 841.09 373.53 746.57 373.53"/>
  <path class="cls-1" d="M682.06,729.27h94.52c14.07-78.54,28.15-157.08,42.22-235.62h-94.52c-14.07,78.54-28.15,157.08-42.22,235.62Z"/>
  <path class="cls-1" d="M1250.45,373.53h-347.69c-5.6,30.9-11.21,61.81-16.81,92.71,86.19-.1,172.39-.2,258.58-.29,21.24-.02,35.85,21.28,28.13,41.02l-13.02,33.27c-4.52,11.55-15.67,19.15-28.09,19.15h-167.78c3.93-21.91,7.85-43.82,11.78-65.74h-94.52c-14.07,78.54-28.15,157.08-42.22,235.62h94.52c5.18-28.88,10.35-57.77,15.53-86.65h238.16c42.47,0,80.69-25.75,96.55-65.05,10.09-41.15,20.19-82.31,30.28-123.46,10.06-41.01-21.07-80.57-63.39-80.57Z"/>
  <path class="cls-1" d="M1756.91,373.53h-379.91c-4.82,0-8.95,3.46-9.78,8.2-4.24,24.09-8.47,48.19-12.71,72.28-1.07,6.08,3.64,11.64,9.82,11.62,100.76-.4,201.52-.8,302.28-1.2,32.57-.13,57.08,29.55,50.72,61.42-5.14,25.76-10.28,51.53-15.42,77.29-4.81,24.1-26.04,41.43-50.67,41.35l-236.08-.7c8.97-50.05,17.94-100.09,26.9-150.14h-94.52c-14.07,78.54-28.15,157.08-42.22,235.62h387.23c51.89,0,96.47-36.74,106.27-87.56l34.02-176.48c9.17-47.57-27.37-91.7-75.93-91.7Z"/>
</svg>